<?xml version="1.0" encoding="iso-8859-1"?>
<!-- Generator: Adobe Illustrator 19.0.0, SVG Export Plug-In . SVG Version: 6.00 Build 0)  -->
<svg version="1.1" id="Layer_1" xmlns="http://www.w3.org/2000/svg" xmlns:xlink="http://www.w3.org/1999/xlink" x="0px" y="0px"
	 viewBox="0 0 511.999 511.999" style="enable-background:new 0 0 511.999 511.999;" xml:space="preserve">
<g>
	<g>
		<path d="M403.434,304.095c-13.629-8.456-28.548-14.75-44.34-18.709c-31.464-7.889-66.396-8.053-109.936-0.514l-3.301,0.571
			c-3.974,0.686-6.877,4.133-6.877,8.165v50.951c0,2.327-1.569,3.466-2.244,3.848c-0.674,0.38-2.459,1.138-4.453-0.059
			c-0.054-0.033-0.109-0.066-0.166-0.097L18.654,226.655c-1.877-1.166-2.083-3.008-2.083-3.752c0-0.743,0.206-2.586,2.083-3.752
			L232.119,97.555c0.055-0.031,0.11-0.064,0.165-0.096c1.997-1.2,3.78-0.441,4.454-0.059c0.675,0.381,2.244,1.521,2.244,3.848
			v50.949c0,4.107,3.008,7.594,7.072,8.196c3.346,0.496,6.693,0.993,10.102,1.502c21.8,3.088,43.837,8.193,65.496,15.172
			c4.354,1.4,9.023-0.99,10.427-5.346c1.403-4.355-0.99-9.023-5.346-10.427c-22.555-7.268-45.52-12.587-68.191-15.798
			c-0.995-0.148-1.993-0.296-2.988-0.445v-43.804c0-7.665-3.984-14.496-10.654-18.271c-6.64-3.758-14.502-3.673-21.056,0.219
			L10.348,204.811c-0.055,0.031-0.11,0.064-0.166,0.097C3.806,208.738,0,215.465,0,222.904s3.806,14.164,10.183,17.994
			c0.054,0.033,0.109,0.066,0.166,0.097L223.84,362.609c3.342,1.985,7.025,2.981,10.713,2.981c3.543,0,7.09-0.92,10.344-2.76
			c6.673-3.775,10.655-10.606,10.655-18.271v-43.961c39.515-6.517,71.219-6.233,99.511,0.861
			c14.128,3.543,27.462,9.167,39.636,16.717c3.884,2.412,8.996,1.215,11.408-2.674C408.52,311.615,407.324,306.507,403.434,304.095z
			"/>
	</g>
</g>
<g>
	<g>
		<path d="M466.715,254.807c-25.313-33.664-61.994-61.609-106.073-80.812c-4.194-1.827-9.078,0.093-10.905,4.288
			c-1.827,4.195,0.092,9.078,4.288,10.905c41.461,18.062,75.849,44.197,99.446,75.579c29.503,39.239,44.653,90.894,41.565,141.718
			l-0.009,0.144c-0.304,4.799-4.393,8.585-9.175,8.585c-0.109,0-0.218-0.002-0.328-0.005l-0.61-0.023
			c-4.085-0.148-7.62-2.988-8.597-6.915l-0.116-0.458c-5.713-21.914-14.85-42.131-27.162-60.091
			c-5.335-7.786-11.4-15.102-18.026-21.745c-3.23-3.24-8.477-3.248-11.717-0.014c-3.24,3.23-3.247,8.477-0.014,11.717
			c5.912,5.926,11.324,12.456,16.089,19.408c11.227,16.376,19.568,34.849,24.789,54.877l0.081,0.317
			c2.75,11.045,12.651,19.048,24.104,19.464l0.567,0.021c0.326,0.012,0.648,0.018,0.971,0.018c13.624,0,24.818-10.416,25.687-24.145
			l0.009-0.145C514.899,352.796,498.547,297.145,466.715,254.807z"/>
	</g>
</g>
<g>
</g>
<g>
</g>
<g>
</g>
<g>
</g>
<g>
</g>
<g>
</g>
<g>
</g>
<g>
</g>
<g>
</g>
<g>
</g>
<g>
</g>
<g>
</g>
<g>
</g>
<g>
</g>
<g>
</g>
</svg>
